<svg xmlns="http://www.w3.org/2000/svg" version="1.1" xmlns:xlink="http://www.w3.org/1999/xlink" xmlns:svgjs="http://svgjs.com/svgjs" width="1920" height="1080" preserveAspectRatio="none" viewBox="0 0 1920 1080"><g mask="url(&quot;#SvgjsMask1125&quot;)" fill="none"><rect width="1920" height="1080" x="0" y="0" fill="#0e2a47"></rect><path d="M -264.82754975803374,192 C -188.03,298 -34.43,664.2 119.17245024196626,722 C 272.77,779.8 349.57,439.4 503.17245024196626,481 C 656.77,522.6 733.57,958.4 887.1724502419663,930 C 1040.77,901.6 1117.57,330.8 1271.1724502419663,339 C 1424.77,347.2 1501.57,982.6 1655.1724502419663,971 C 1808.77,959.4 1986.21,320.2 2039.1724502419663,281 C 2092.14,241.8 1943.83,676.2 1920,775" stroke="rgba(51, 121, 194, 0.58)" stroke-width="2"></path><path d="M -98.97070961186228,856 C -22.17,772 131.43,414.8 285.0292903881377,436 C 438.63,457.2 515.43,1012.6 669.0292903881377,962 C 822.63,911.4 899.43,199.8 1053.0292903881377,183 C 1206.63,166.2 1283.43,885 1437.0292903881377,878 C 1590.63,871 1667.43,160.4 1821.0292903881377,148 C 1974.63,135.6 2185.24,760 2205.0292903881377,816 C 2224.82,872 1977.01,505.6 1920,428" stroke="rgba(51, 121, 194, 0.58)" stroke-width="2"></path><path d="M -464.84581938277006,1043 C -388.05,927.4 -234.45,502.4 -80.84581938277003,465 C 72.75,427.6 149.55,931.2 303.15418061722994,856 C 456.75,780.8 533.55,127.4 687.1541806172299,89 C 840.75,50.6 917.55,631.6 1071.15418061723,664 C 1224.75,696.4 1301.55,258.6 1455.15418061723,251 C 1608.75,243.4 1746.19,667.4 1839.15418061723,626 C 1932.12,584.6 1903.83,160.4 1920,44" stroke="rgba(51, 121, 194, 0.58)" stroke-width="2"></path><path d="M -252.70131392291987,591 C -175.9,490 -22.3,34.8 131.29868607708013,86 C 284.9,137.2 361.7,787 515.2986860770801,847 C 668.9,907 745.7,428.6 899.2986860770801,386 C 1052.9,343.4 1129.7,702.8 1283.2986860770802,634 C 1436.9,565.2 1513.7,19.2 1667.2986860770802,42 C 1820.9,64.8 2000.76,684.6 2051.29868607708,748 C 2101.84,811.4 1946.26,436.8 1920,359" stroke="rgba(51, 121, 194, 0.58)" stroke-width="2"></path></g><defs><mask id="SvgjsMask1125"><rect width="1920" height="1080" fill="#ffffff"></rect></mask></defs></svg>